<svg xmlns="http://www.w3.org/2000/svg" width="100" height="100" viewBox="0 0 24 24"><path fill="#ffffff" d="M20.5 8.5v-3a1 1 0 0 0-1-1h-15a1 1 0 0 0-1 1v3a1 1 0 0 0 1 1a1 1 0 0 0-1 1v3a1 1 0 0 0 1 1a1 1 0 0 0-1 1v3a1 1 0 0 0 1 1h15a1 1 0 0 0 1-1v-3a1 1 0 0 0-1-1a1 1 0 0 0 1-1v-3a1 1 0 0 0-1-1a1 1 0 0 0 1-1m-1 10h-15v-3h15Zm0-5h-15v-3h15Zm0-5h-15v-3h15Z"/><circle cx="6.25" cy="7" r=".75" fill="#ffffff"/><circle cx="8.75" cy="7" r=".75" fill="#ffffff"/><circle cx="6.25" cy="12" r=".75" fill="#ffffff"/><circle cx="8.75" cy="12" r=".75" fill="#ffffff"/><circle cx="6.25" cy="17" r=".75" fill="#ffffff"/><circle cx="8.75" cy="17" r=".75" fill="#ffffff"/></svg>